<svg xmlns="http://www.w3.org/2000/svg" viewBox="0 0 500 340"><rect width="500" height="340" rx="20" fill="#f4f8fc"/><g transform="translate(145 84) scale(1)"><circle cx="0" cy="0" r="23" fill="#f1c8a7"/><path d="M-13 -7q13-19 28 0" fill="none" stroke="#594738" stroke-width="9" stroke-linecap="round" stroke-linejoin="round"/><rect x="-26" y="30" width="52" height="67" rx="12" fill="#168aad" stroke="#28465c" stroke-width="3"/><path d="M-15 98v44m30-44v44M-26 42l-22 45m74-45 22 45" fill="none" stroke="#28465c" stroke-width="6" stroke-linecap="round" stroke-linejoin="round"/></g><rect x="58" y="210" width="384" height="28" rx="12" fill="#b88960" stroke="#28465c" stroke-width="3"/><path d="M80 238v42m340-42v42" fill="none" stroke="#28465c" stroke-width="6" stroke-linecap="round" stroke-linejoin="round"/><circle cx="320" cy="178" r="26" fill="#edb547"/><circle cx="320" cy="178" r="15" fill="#f4f8fc"/><path d="M238 107l45 83" fill="none" stroke="#168aad" stroke-width="9" stroke-linecap="round" stroke-linejoin="round"/><rect x="217" y="90" width="60" height="22" rx="12" fill="#6c7984" stroke="#28465c" stroke-width="3"/><text x="250" y="305" text-anchor="middle" font-family="Arial,sans-serif" font-size="22" font-weight="700" fill="#17334f">Making jewellery by hand</text></svg>