<svg xmlns="http://www.w3.org/2000/svg" viewBox="0 0 500 340"><rect width="500" height="340" rx="20" fill="#f4f8fc"/><text x="250" y="62" text-anchor="middle" font-family="Arial,sans-serif" font-size="25" font-weight="700" fill="#17334f">A WEEK</text><rect x="18" y="115" width="62" height="120" rx="10" fill="#dbe5ec"/><text x="49" y="164" text-anchor="middle" font-family="Arial,sans-serif" font-size="18" font-weight="700" fill="#617588">Mon</text><rect x="85" y="115" width="62" height="120" rx="10" fill="#dbe5ec"/><text x="116" y="164" text-anchor="middle" font-family="Arial,sans-serif" font-size="18" font-weight="700" fill="#617588">Tue</text><rect x="152" y="115" width="62" height="120" rx="10" fill="#dbe5ec"/><text x="183" y="164" text-anchor="middle" font-family="Arial,sans-serif" font-size="18" font-weight="700" fill="#617588">Wed</text><rect x="219" y="115" width="62" height="120" rx="10" fill="#dbe5ec"/><text x="250" y="164" text-anchor="middle" font-family="Arial,sans-serif" font-size="18" font-weight="700" fill="#617588">Thu</text><rect x="286" y="115" width="62" height="120" rx="10" fill="#dbe5ec"/><text x="317" y="164" text-anchor="middle" font-family="Arial,sans-serif" font-size="18" font-weight="700" fill="#617588">Fri</text><rect x="353" y="115" width="62" height="120" rx="10" fill="#087ea4"/><text x="384" y="164" text-anchor="middle" font-family="Arial,sans-serif" font-size="18" font-weight="700" fill="white">Sat</text><path d="M370 192 l9 10 19 -24" fill="none" stroke="white" stroke-width="6"/><rect x="420" y="115" width="62" height="120" rx="10" fill="#dbe5ec"/><text x="451" y="164" text-anchor="middle" font-family="Arial,sans-serif" font-size="18" font-weight="700" fill="#617588">Sun</text></svg>